<svg xmlns="http://www.w3.org/2000/svg" xml:space="preserve" width="1.70666in" height="1.70666in" version="1.1" style="shape-rendering:geometricPrecision; text-rendering:geometricPrecision; image-rendering:optimizeQuality; fill-rule:evenodd; clip-rule:evenodd" viewBox="0 0 1707 1707" xmlns:xlink="http://www.w3.org/1999/xlink">
 <defs>
  <style type="text/css">
   
    .fil0 {fill:none}
    .fil1 {fill:black}
   
  </style>
 </defs>
 <rect class="fil0" x="-147" y="-147" width="2000" height="2000" id="id_101"></rect>
 <g id="Layer_x0020_1">
  <metadata id="CorelCorpID_0Corel-Layer"></metadata>
  <path class="fil1" d="M412 610l-215 0c-30,0 -30,-46 0,-46l215 0c10,-49 54,-86 107,-86 84,0 136,90 96,162l142 123c34,-27 81,-30 119,-9l488 -561 -89 -89c-12,-13 -6,-34 11,-38l273 -65c17,-4 31,11 27,27l-65 273c-4,17 -25,23 -38,11l-87 -87 -486 559c54,72 3,175 -87,175 -84,0 -136,-90 -96,-162l-142 -123c-64,49 -157,14 -173,-64zm1228 1097l-1573 0c-12,0 -23,-11 -23,-23l0 -161c0,-30 38,-23 67,-23l0 -613c0,-13 10,-23 23,-23l165 0c13,0 23,10 23,23l0 613 108 0 0 -613c0,-13 10,-23 22,-23l165 0c13,0 23,10 23,23l0 613 108 0 0 -365c0,-12 10,-23 23,-23l165 0c12,0 23,11 23,23l0 365 108 0 0 -795c0,-13 10,-23 22,-23l165 0c13,0 23,10 23,23l0 795 108 0 0 -1052c0,-12 10,-22 23,-22l165 0c12,0 22,10 22,22l0 1052c30,0 67,-7 67,23l0 161c0,12 -10,23 -22,23zm-1550 -46l1527 0 0 -115 -1318 0 -209 0 0 115zm67 -161l119 0 0 -590 -119 0 0 590zm318 0l120 0 0 -590 -120 0 0 590zm319 0l119 0 0 -342 -119 0 0 342zm318 0l120 0 0 -773 -120 0 0 773zm318 0l120 0 0 -1029 -120 0 0 1029zm-94 -1400l151 151 47 -198 -198 47zm-881 487c0,85 128,85 128,0 0,-84 -128,-84 -128,0zm368 199c-85,0 -85,128 0,128 84,0 84,-128 0,-128z" id="id_102" style="fill: rgb(21, 210, 217);"></path>
 </g>
</svg>