<svg xmlns="http://www.w3.org/2000/svg" xml:space="preserve" width="1.70666in" height="1.70666in" version="1.1" style="shape-rendering:geometricPrecision; text-rendering:geometricPrecision; image-rendering:optimizeQuality; fill-rule:evenodd; clip-rule:evenodd" viewBox="0 0 1707 1707" xmlns:xlink="http://www.w3.org/1999/xlink">
 <defs>
  <style type="text/css">
   
    .fil0 {fill:url(#id0)}
   
  </style>
  <linearGradient id="id0" gradientUnits="userSpaceOnUse" x1="853.331" y1="119.638" x2="853.331" y2="1587.02">
   <stop offset="0" style="stop-opacity: 1; stop-color: rgb(230, 0, 255);" id="id_102"></stop>
   <stop offset="0.509804" style="stop-opacity: 1; stop-color: rgb(0, 255, 242);" id="id_103"></stop>
   <stop offset="1" style="stop-opacity: 1; stop-color: rgb(255, 179, 0);" id="id_104"></stop>
  </linearGradient>
 </defs>
 <g id="Layer_x0020_1">
  <metadata id="CorelCorpID_0Corel-Layer"></metadata>
  <path class="fil0" d="M853 1706c-61,0 -114,-40 -131,-97l-51 0c-22,0 -40,-17 -40,-40 0,-22 18,-40 40,-40l85 0 194 0 85 0c22,0 40,18 40,40 0,23 -18,40 -40,40l-51 0c-17,57 -69,97 -131,97zm182 -320l-364 0c-19,0 -36,-15 -39,-35 -24,-164 -80,-214 -139,-267 -67,-60 -136,-122 -136,-326 0,-273 223,-496 496,-496 274,0 497,223 497,496 0,204 -70,266 -136,326 -59,53 -115,103 -139,267 -3,20 -20,35 -40,35zm-330 -80l296 0c32,-167 99,-228 159,-281 61,-55 110,-98 110,-267 0,-229 -187,-416 -417,-416 -229,0 -416,187 -416,416 0,169 48,212 109,267 60,53 128,114 159,281zm-187 -485c-21,0 -39,-17 -40,-38 -4,-102 32,-200 101,-275 70,-74 164,-118 266,-122 22,-1 41,16 42,39 0,22 -17,40 -39,41 -81,3 -155,38 -210,97 -55,59 -83,136 -80,217 1,22 -16,40 -39,41 0,0 -1,0 -1,0zm517 677l-364 0c-22,0 -40,-18 -40,-40 0,-23 18,-40 40,-40l364 0c22,0 40,17 40,40 0,22 -18,40 -40,40zm-190 -1282c-22,0 -40,-18 -40,-40l0 -136c0,-22 18,-40 40,-40 22,0 40,18 40,40l0 136c0,22 -18,40 -40,40zm325 83c-7,0 -13,-2 -20,-5 -19,-11 -25,-36 -14,-55l68 -118c11,-19 35,-25 54,-14 19,11 26,35 15,54l-68 118c-8,13 -21,20 -35,20zm240 234c-14,0 -27,-7 -34,-20 -12,-19 -5,-43 14,-54l118 -68c19,-12 44,-5 55,14 11,19 4,44 -15,55l-118 68c-6,4 -13,5 -20,5zm227 323l-136 0c-22,0 -40,-18 -40,-40 0,-22 18,-40 40,-40l136 0c22,0 40,18 40,40 0,22 -18,40 -40,40zm-1431 16l-136 0c-22,0 -40,-18 -40,-40 0,-22 18,-40 40,-40l136 0c22,0 40,18 40,40 0,22 -18,40 -40,40zm83 -325c-7,0 -14,-2 -20,-5l-118 -68c-19,-11 -26,-36 -15,-55 11,-19 36,-26 55,-15l118 68c19,11 25,36 14,55 -7,13 -21,20 -34,20zm234 -240c-14,0 -28,-7 -35,-20l-68 -118c-11,-19 -4,-43 15,-54 19,-12 43,-5 54,14l68 118c11,19 5,44 -14,55 -7,3 -13,5 -20,5zm290 1302c10,11 24,17 40,17 16,0 31,-6 41,-17l-81 0z" id="id_101"></path>
 </g>
</svg>