<?xml version="1.0" encoding="UTF-8" standalone="no"?> <svg width="512" height="512" viewBox="0 0 512 512" fill="none" xmlns="http://www.w3.org/2000/svg">
<path d="M124 184H36C28.5765 184.008 21.4593 186.961 16.2101 192.21C10.9608 197.459 8.00821 204.576 8 212V300C8.00821 307.424 10.9608 314.541 16.2101 319.79C21.4593 325.039 28.5765 327.992 36 328H124C131.424 327.992 138.541 325.039 143.79 319.79C149.039 314.541 151.992 307.424 152 300V212C151.992 204.576 149.039 197.459 143.79 192.21C138.541 186.961 131.424 184.008 124 184V184ZM48 312C48 303.513 51.3714 295.374 57.3726 289.373C63.3737 283.371 71.5131 280 80 280C88.4869 280 96.6263 283.371 102.627 289.373C108.629 295.374 112 303.513 112 312H48ZM64 248C64 244.835 64.9384 241.742 66.6965 239.111C68.4546 236.48 70.9534 234.429 73.8771 233.218C76.8007 232.007 80.0177 231.69 83.1214 232.307C86.2251 232.925 89.0761 234.449 91.3137 236.686C93.5513 238.924 95.0752 241.775 95.6926 244.879C96.3099 247.982 95.9931 251.199 94.7821 254.123C93.5711 257.047 91.5203 259.545 88.8891 261.304C86.2579 263.062 83.1645 264 80 264C75.7582 263.994 71.6918 262.307 68.6924 259.308C65.6931 256.308 64.0056 252.242 64 248V248ZM136 300C135.995 302.483 135.221 304.903 133.785 306.928C132.349 308.953 130.321 310.484 127.98 311.31C127.856 302.853 125.499 294.578 121.15 287.324C116.8 280.07 110.611 274.094 103.21 270C107.518 265.461 110.401 259.759 111.501 253.598C112.602 247.438 111.872 241.09 109.402 235.34C106.932 229.59 102.83 224.691 97.6043 221.248C92.3785 217.805 86.2579 215.971 80 215.971C73.7421 215.971 67.6215 217.805 62.3957 221.248C57.1698 224.691 53.0681 229.59 50.5981 235.34C48.1281 241.09 47.3982 247.438 48.4987 253.598C49.5993 259.759 52.4819 265.461 56.79 270C49.3886 274.094 43.1999 280.07 38.8503 287.324C34.5006 294.578 32.1444 302.853 32.02 311.31C29.679 310.484 27.6513 308.953 26.2153 306.928C24.7793 304.903 24.0054 302.483 24 300V212C24.0026 208.818 25.2678 205.768 27.5176 203.518C29.7675 201.268 32.8182 200.003 36 200H124C127.182 200.003 130.232 201.268 132.482 203.518C134.732 205.768 135.997 208.818 136 212V300Z" fill="url(#paint0_linear_2_6502)"/>
<path d="M476 184H388C380.576 184.008 373.459 186.961 368.21 192.21C362.961 197.459 360.008 204.576 360 212V300C360.008 307.424 362.961 314.541 368.21 319.79C373.459 325.039 380.576 327.992 388 328H476C483.424 327.992 490.541 325.039 495.79 319.79C501.039 314.541 503.992 307.424 504 300V212C503.992 204.576 501.039 197.459 495.79 192.21C490.541 186.961 483.424 184.008 476 184V184ZM400 312C400 303.513 403.371 295.374 409.373 289.373C415.374 283.371 423.513 280 432 280C440.487 280 448.626 283.371 454.627 289.373C460.629 295.374 464 303.513 464 312H400ZM416 248C416 244.835 416.938 241.742 418.696 239.111C420.455 236.48 422.953 234.429 425.877 233.218C428.801 232.007 432.018 231.69 435.121 232.307C438.225 232.925 441.076 234.449 443.314 236.686C445.551 238.924 447.075 241.775 447.693 244.879C448.31 247.982 447.993 251.199 446.782 254.123C445.571 257.047 443.52 259.545 440.889 261.304C438.258 263.062 435.165 264 432 264C427.758 263.994 423.692 262.307 420.692 259.308C417.693 256.308 416.006 252.242 416 248ZM488 300C487.995 302.483 487.221 304.903 485.785 306.928C484.349 308.953 482.321 310.484 479.98 311.31C479.856 302.853 477.499 294.578 473.15 287.324C468.8 280.07 462.611 274.094 455.21 270C459.518 265.461 462.401 259.759 463.501 253.598C464.602 247.438 463.872 241.09 461.402 235.34C458.932 229.59 454.83 224.691 449.604 221.248C444.379 217.805 438.258 215.971 432 215.971C425.742 215.971 419.621 217.805 414.396 221.248C409.17 224.691 405.068 229.59 402.598 235.34C400.128 241.09 399.398 247.438 400.499 253.598C401.599 259.759 404.482 265.461 408.79 270C401.389 274.094 395.2 280.07 390.85 287.324C386.501 294.578 384.144 302.853 384.02 311.31C381.679 310.484 379.651 308.953 378.215 306.928C376.779 304.903 376.005 302.483 376 300V212C376.003 208.818 377.268 205.768 379.518 203.518C381.768 201.268 384.818 200.003 388 200H476C479.182 200.003 482.232 201.268 484.482 203.518C486.732 205.768 487.997 208.818 488 212V300Z" fill="url(#paint1_linear_2_6502)"/>
<path d="M128 152H304V160C304 161.448 304.393 162.869 305.137 164.111C305.881 165.353 306.949 166.37 308.225 167.053C309.502 167.736 310.94 168.06 312.387 167.99C313.833 167.92 315.233 167.459 316.438 166.656L364.438 134.656C365.534 133.925 366.432 132.936 367.053 131.774C367.675 130.613 368 129.317 368 128C368 126.683 367.675 125.386 367.053 124.225C366.432 123.064 365.534 122.074 364.438 121.344L316.438 89.3439C315.233 88.5406 313.833 88.0793 312.387 88.0094C310.94 87.9394 309.502 88.2632 308.225 88.9465C306.949 89.6297 305.881 90.6466 305.137 91.8888C304.393 93.131 304 94.5518 304 95.9999V104H128C125.878 104 123.843 104.843 122.343 106.343C120.843 107.843 120 109.878 120 112V144C120 146.122 120.843 148.156 122.343 149.657C123.843 151.157 125.878 152 128 152ZM136 120H312C314.122 120 316.157 119.157 317.657 117.657C319.157 116.156 320 114.122 320 112V110.948L345.578 128L320 145.052V144C320 141.878 319.157 139.843 317.657 138.343C316.157 136.843 314.122 136 312 136H136V120Z" fill="url(#paint2_linear_2_6502)"/>
<path d="M80 152H104C106.122 152 108.157 151.157 109.657 149.657C111.157 148.157 112 146.122 112 144V112C112 109.878 111.157 107.843 109.657 106.343C108.157 104.843 106.122 104 104 104H80C77.8783 104 75.8434 104.843 74.3431 106.343C72.8429 107.843 72 109.878 72 112V144C72 146.122 72.8429 148.157 74.3431 149.657C75.8434 151.157 77.8783 152 80 152ZM88 120H96V136H88V120Z" fill="url(#paint3_linear_2_6502)"/>
<path d="M376 368H200V360C200 358.552 199.607 357.131 198.863 355.889C198.119 354.647 197.051 353.63 195.775 352.946C194.498 352.263 193.06 351.939 191.613 352.009C190.167 352.079 188.767 352.541 187.562 353.344L139.562 385.344C138.466 386.074 137.568 387.064 136.947 388.225C136.325 389.386 136 390.683 136 392C136 393.317 136.325 394.613 136.947 395.774C137.568 396.936 138.466 397.925 139.562 398.656L187.562 430.656C188.767 431.459 190.167 431.92 191.613 431.99C193.06 432.06 194.498 431.736 195.775 431.053C197.051 430.37 198.119 429.353 198.863 428.111C199.607 426.869 200 425.448 200 424V416H376C378.122 416 380.157 415.157 381.657 413.657C383.157 412.156 384 410.122 384 408V376C384 373.878 383.157 371.843 381.657 370.343C380.157 368.843 378.122 368 376 368ZM368 400H192C189.878 400 187.843 400.843 186.343 402.343C184.843 403.843 184 405.878 184 408V409.052L158.422 392L184 374.948V376C184 378.122 184.843 380.156 186.343 381.657C187.843 383.157 189.878 384 192 384H368V400Z" fill="url(#paint4_linear_2_6502)"/>
<path d="M424 368H400C397.878 368 395.843 368.843 394.343 370.343C392.843 371.843 392 373.878 392 376V408C392 410.122 392.843 412.157 394.343 413.657C395.843 415.157 397.878 416 400 416H424C426.122 416 428.157 415.157 429.657 413.657C431.157 412.157 432 410.122 432 408V376C432 373.878 431.157 371.843 429.657 370.343C428.157 368.843 426.122 368 424 368ZM416 400H408V384H416V400Z" fill="url(#paint5_linear_2_6502)"/>
<path d="M304 264H296V216C296 205.391 291.786 195.217 284.284 187.716C276.783 180.214 266.609 176 256 176C245.391 176 235.217 180.214 227.716 187.716C220.214 195.217 216 205.391 216 216V264H208C205.878 264 203.843 264.843 202.343 266.343C200.843 267.843 200 269.878 200 272V328C200 330.122 200.843 332.157 202.343 333.657C203.843 335.157 205.878 336 208 336H304C306.122 336 308.157 335.157 309.657 333.657C311.157 332.157 312 330.122 312 328V272C312 269.878 311.157 267.843 309.657 266.343C308.157 264.843 306.122 264 304 264ZM232 216C232 209.635 234.529 203.53 239.029 199.029C243.53 194.529 249.635 192 256 192C262.365 192 268.47 194.529 272.971 199.029C277.471 203.53 280 209.635 280 216V264H232V216ZM296 320H216V280H296V320Z" fill="url(#paint6_linear_2_6502)"/>
<defs>
<linearGradient id="paint0_linear_2_6502" x1="-69.748" y1="405.748" x2="351.4" y2="-15.4" gradientUnits="userSpaceOnUse">
<stop stop-color="#003F8A"/>
<stop offset="0.518" stop-color="#00D7DF"/>
<stop offset="1" stop-color="#006DF0"/>
</linearGradient>
<linearGradient id="paint1_linear_2_6502" x1="15660.3" y1="83955.7" x2="76305.6" y2="23310.4" gradientUnits="userSpaceOnUse">
<stop stop-color="#003F8A"/>
<stop offset="0.518" stop-color="#00D7DF"/>
<stop offset="1" stop-color="#006DF0"/>
</linearGradient>
<linearGradient id="paint2_linear_2_6502" x1="-13705.5" y1="33667.7" x2="5982.46" y2="-27364.9" gradientUnits="userSpaceOnUse">
<stop stop-color="#003F8A"/>
<stop offset="0.518" stop-color="#00D7DF"/>
<stop offset="1" stop-color="#006DF0"/>
</linearGradient>
<linearGradient id="paint3_linear_2_6502" x1="-5037.92" y1="16795.9" x2="14845.8" y2="226.147" gradientUnits="userSpaceOnUse">
<stop stop-color="#003F8A"/>
<stop offset="0.518" stop-color="#00D7DF"/>
<stop offset="1" stop-color="#006DF0"/>
</linearGradient>
<linearGradient id="paint4_linear_2_6502" x1="23014.5" y1="45771.7" x2="42702.3" y2="-15260.9" gradientUnits="userSpaceOnUse">
<stop stop-color="#003F8A"/>
<stop offset="0.518" stop-color="#00D7DF"/>
<stop offset="1" stop-color="#006DF0"/>
</linearGradient>
<linearGradient id="paint5_linear_2_6502" x1="6962.08" y1="31075.9" x2="26845.8" y2="14506.1" gradientUnits="userSpaceOnUse">
<stop stop-color="#003F8A"/>
<stop offset="0.518" stop-color="#00D7DF"/>
<stop offset="1" stop-color="#006DF0"/>
</linearGradient>
<linearGradient id="paint6_linear_2_6502" x1="3217.84" y1="80566.4" x2="66531.4" y2="36246.9" gradientUnits="userSpaceOnUse">
<stop stop-color="#003F8A"/>
<stop offset="0.518" stop-color="#00D7DF"/>
<stop offset="1" stop-color="#006DF0"/>
</linearGradient>
</defs>
</svg>
